<?xml version="1.0" encoding="UTF-8"?>
<svg id="Layer_1" data-name="Layer 1" xmlns="http://www.w3.org/2000/svg" xmlns:xlink="http://www.w3.org/1999/xlink" viewBox="0 0 280 280">
  <defs>
    <style>
      .cls-1 {
        fill: #fff;
      }

      .cls-2 {
        fill: url(#linear-gradient);
      }
    </style>
    <linearGradient id="linear-gradient" x1="0" y1="140.25" x2="279.97" y2="140.25" gradientUnits="userSpaceOnUse">
      <stop offset="0" stop-color="#bbf4fc"/>
      <stop offset=".12" stop-color="#bbf4fc"/>
      <stop offset=".14" stop-color="#bbf4fc"/>
    </linearGradient>
  </defs>
  <rect class="cls-2" y=".5" width="279.97" height="279.5"/>
  <path class="cls-1" d="M279.97,261.81v1.14c-.12,0-.24-.04-.34-.11-7.01-5.04-16.87-13.04-24.04-22.53-8.67-11.48-11.15-22.14-7.37-31.7,6.75-17.04-10.34-44.77-26.86-71.59-10.98-17.82-21.35-34.66-23.87-47.17-5.36-26.55,20.78-74.8,29.17-89.36,.05-.08,.09-.16,.14-.23,.14-.24,.47-.34,.75-.21,.19,.09,.29,.26,.29,.44,0,.08-.02,.16-.06,.23-8.2,14.2-34.52,62.57-29.19,88.94,2.48,12.35,12.81,29.11,23.75,46.86,16.64,27.01,33.85,54.95,26.93,72.42-3.65,9.23-1.21,19.59,7.24,30.79,6.98,9.23,16.55,17.05,23.47,22.06Z"/>
  <path class="cls-1" d="M279.97,250.48v1.24c-.15,0-.29-.05-.4-.16-11.06-10.8-17.72-22.15-19.81-33.74-1.76-9.73,0-17.71,1.17-22.99,.52-2.34,.93-4.19,.86-5.41-.18-3.67-6.92-15.92-15.45-31.44-8.43-15.34-18.92-34.43-28.23-54.3-7.09-15.15-6.82-35.29,.8-59.87,6.1-19.66,15.31-36.67,19.14-43.3h1.18c0,.08-.02,.16-.06,.23-3.73,6.44-13.05,23.54-19.19,43.34-7.55,24.36-7.84,44.28-.85,59.2,9.3,19.85,19.78,38.92,28.2,54.25,8.92,16.23,15.37,27.97,15.56,31.84,.07,1.34-.35,3.24-.88,5.65-2.39,10.84-6.83,30.97,17.97,55.45Z"/>
  <path class="cls-1" d="M278.43,203.27c-2.62,6.59-2.11,13.83,1.54,21.53v1.74c-.21,0-.41-.11-.5-.29-4.22-8.33-4.92-16.17-2.08-23.32,6.75-17.04-10.34-44.77-26.86-71.59-10.98-17.82-21.35-34.66-23.87-47.17-4.84-24.09,16.45-66.36,25.98-83.67h1.17c0,.08-.02,.15-.06,.22-9.42,17.08-30.8,59.37-26,83.27,2.48,12.35,12.81,29.11,23.75,46.86,13.66,22.18,27.71,44.98,28.47,62.1,.04,.97,.04,1.91,0,2.84-.12,2.66-.62,5.17-1.54,7.48Z"/>
</svg>