<?xml version="1.0" encoding="utf-8"?>
<!-- Generator: Adobe Illustrator 26.5.0, SVG Export Plug-In . SVG Version: 6.00 Build 0)  -->
<svg version="1.1" id="Layer_1" xmlns="http://www.w3.org/2000/svg" xmlns:xlink="http://www.w3.org/1999/xlink" x="0px" y="0px"
	 viewBox="0 0 285 32" style="enable-background:new 0 0 285 32;" xml:space="preserve">
<style type="text/css">
	.st0{clip-path:url(#SVGID_00000046303554609491140720000012343979196766150043_);}
	.st1{clip-path:url(#SVGID_00000150062966473049604160000009504575610394076578_);fill:#FFFFFF;}
	
		.st2{clip-path:url(#SVGID_00000150062966473049604160000009504575610394076578_);fill-rule:evenodd;clip-rule:evenodd;fill:#068DA9;}
	.st3{clip-path:url(#SVGID_00000150062966473049604160000009504575610394076578_);fill:#068DA9;}
	.st4{clip-path:url(#SVGID_00000150062966473049604160000009504575610394076578_);fill:#27312F;}
</style>
<g>
	<defs>
		<rect id="SVGID_1_" width="285" height="32"/>
	</defs>
	<clipPath id="SVGID_00000016778134172872195910000014236691858301714838_">
		<use xlink:href="#SVGID_1_"  style="overflow:visible;"/>
	</clipPath>
	<g style="clip-path:url(#SVGID_00000016778134172872195910000014236691858301714838_);">
		<g>
			<defs>
				<rect id="SVGID_00000151514526326510032680000008627831225149211801_" x="-16.3" y="-16.3" width="315" height="64.6"/>
			</defs>
			<clipPath id="SVGID_00000128452263659502551370000001001095674028441008_">
				<use xlink:href="#SVGID_00000151514526326510032680000008627831225149211801_"  style="overflow:visible;"/>
			</clipPath>
			
				<rect x="-16.3" y="-16.3" style="clip-path:url(#SVGID_00000128452263659502551370000001001095674028441008_);fill:#FFFFFF;" width="315" height="64.6"/>
			
				<path style="clip-path:url(#SVGID_00000128452263659502551370000001001095674028441008_);fill-rule:evenodd;clip-rule:evenodd;fill:#068DA9;" d="
				M10.6,2.6V0.8c0-0.5-0.4-0.9-0.9-0.9h-9c-0.5,0-0.9,0.4-0.9,0.9l0,7.8c0,1.1,0.7,2,1.8,2.3l27.9,6.9c1.3,0.3,2.5-0.6,2.6-2
				c0-1.1,0-2.3,0-3.4c0-1.1-0.7-2-1.8-2.3l-5.6-1.4c-0.3-0.1-0.5-0.4-0.5-0.7V7.8c0-0.3,0.2-0.6,0.5-0.7l6.7-1.7
				c0.4-0.1,0.7-0.5,0.7-0.9V0.8c0-0.5-0.4-0.9-0.9-0.9h-9c-0.5,0-0.9,0.4-0.9,0.9l0,7.9c0,1.1,0.7,2,1.8,2.3l5.7,1.4
				c0.3,0.1,0.5,0.4,0.5,0.7v1.1c0,0.5-0.4,0.8-0.9,0.7L3.2,8.6C2.9,8.5,2.6,8.2,2.6,7.9V7.9c0-0.3,0.2-0.6,0.5-0.7l6.8-1.7
				c0.4-0.1,0.7-0.5,0.7-0.9V2.6z"/>
			<path style="clip-path:url(#SVGID_00000128452263659502551370000001001095674028441008_);fill:#068DA9;" d="M10.6,26.7l0,4.5
				c0,0.5-0.4,0.9-0.9,0.9h-9c-0.5,0-0.9-0.4-0.9-0.9l0-3.8c0-0.4,0.3-0.8,0.7-0.9l6.7-1.7c0.3-0.1,0.5-0.4,0.5-0.7v-0.3
				c0-0.3-0.2-0.6-0.5-0.7l-5.6-1.4c-1-0.3-1.8-1.2-1.8-2.3l0-3.7c0-1.3,1.3-2.3,2.6-2l27.9,6.9c1,0.3,1.8,1.2,1.8,2.3v8.2
				c0,0.5-0.4,0.9-0.9,0.9h-9c-0.5,0-0.9-0.4-0.9-0.9v-3.8c0-0.4,0.3-0.8,0.7-0.9l6.8-1.7c0.3-0.1,0.5-0.4,0.5-0.7v-0.4
				c0-0.3-0.2-0.6-0.5-0.7L3.5,16.9c-0.4-0.1-0.9,0.2-0.9,0.7v1.3c0,0.3,0.2,0.6,0.5,0.7l5.6,1.4c1,0.3,1.8,1.2,1.8,2.3L10.6,26.7z"
				/>
			<path style="clip-path:url(#SVGID_00000128452263659502551370000001001095674028441008_);fill:#27312F;" d="M259.1,26.8h4
				c0.5,0,0.8-0.3,0.8-0.8V25c0-0.6-0.3-0.7-0.7-1c-0.5-0.4-1-0.7-1-1.7V18c0-2.2,1-3.5,2.9-3.5c2,0,3,1.3,3,3.5v8.1
				c0,0.4,0.3,0.8,0.8,0.8h4c0.5,0,0.8-0.3,0.8-0.8V25c0-0.6-0.3-0.7-0.7-1c-0.5-0.4-1-0.7-1-1.7V18c0-2.2,1-3.5,2.9-3.5
				c2,0,3,1.3,3,3.5v8.1c0,0.4,0.3,0.8,0.8,0.8h4c0.5,0,0.8-0.3,0.8-0.8V25c0-0.6-0.3-0.7-0.7-1c-0.5-0.4-1-0.7-1-1.7v-4.5
				c0-4.1-2.1-6.5-5.7-6.5c-1.8,0-3.3,0.7-4.9,2.6c-0.9-1.7-2.6-2.6-4.8-2.6c-1.9,0-3.6,0.8-4.4,2.3h-0.1c-0.3-1.2-1.1-2-2.7-2h-1.5
				c-0.5,0-0.8,0.3-0.8,0.8v1.2c0,0.5,0.3,0.7,0.7,0.9c0.5,0.4,1,0.7,1,1.7v9.9C258.3,26.5,258.6,26.8,259.1,26.8z M48.6,26.8h2.5
				c0.4,0,0.8-0.3,0.8-0.8v-7.8c0-0.8,0.3-0.9,1.1-0.8l7.6,1.2c0.7,0.1,0.9,0.5,0.9,1.2v6.2c0,0.4,0.3,0.8,0.8,0.8h2.5
				c0.4,0,0.8-0.3,0.8-0.8V5.8C65.3,5.4,65,5,64.6,5h-2.5c-0.4,0-0.8,0.3-0.8,0.8V14c0,0.8-0.3,0.9-1.1,0.8l-7.6-1.2
				c-0.7-0.1-0.9-0.5-0.9-1.2V5.8c0-0.4-0.3-0.8-0.8-0.8h-2.5c-0.4,0-0.8,0.3-0.8,0.8v20.3C47.9,26.5,48.2,26.8,48.6,26.8z
				 M75.7,27.1c2.4,0,4.6-0.7,6.1-2.4c0.2-0.3,0.3-0.5,0-0.7l-1.7-1.4c-0.3-0.2-0.5-0.2-0.7,0c-1,1-2.4,1.3-3.6,1.3
				c-2.4,0-3.9-1.3-4.2-3.5H82c0.4,0,0.7-0.2,0.7-0.7c0.3-4.7-2.3-8.5-7.4-8.5c-4.7,0-7.7,3.4-7.7,8C67.6,23.9,70.8,27.1,75.7,27.1z
				 M71.6,17.6c0.3-1.8,1.5-3.2,3.7-3.2c2.2,0,3.4,1.4,3.6,3.2H71.6z M89.7,24.1c-1.3,0-2.3-0.6-2.3-1.8c0-1.2,1.1-1.8,2.3-1.8h3.9
				C93.6,22.9,91.8,24.1,89.7,24.1z M89,27.1c2.1,0,3.8-0.7,4.9-2.5H94c0.3,1.3,1.1,2.2,2.7,2.2h1.5c0.5,0,0.8-0.3,0.8-0.8v-1.2
				c0-0.5-0.3-0.7-0.7-0.9c-0.5-0.4-1-0.7-1-1.7v-4.4c0-3.8-2-6.6-6.6-6.6c-2.2,0-4.1,0.8-5.6,2.4c-0.3,0.3-0.3,0.7,0.1,1l1.6,1.2
				c0.3,0.3,0.7,0.3,1-0.2c0.7-0.7,1.7-1.2,2.9-1.2c2,0,2.8,0.9,2.8,2.2c0,0.5-0.3,0.8-0.9,0.8h-3.4c-3.1,0-5.6,1.7-5.6,4.9
				C83.8,25.5,85.9,27.1,89,27.1z M107.7,23.9c-2.5,0-4-2-4-4.6c0-2.5,1.4-4.6,4-4.6s4,2,4,4.6C111.6,21.9,110.1,23.9,107.7,23.9z
				 M106.8,27.1c2.3,0,4.1-0.9,5-2.7h0.1c0.3,1.5,1.2,2.3,2.8,2.3h1.7c0.5,0,0.8-0.3,0.8-0.8v-1.2c0-0.5-0.3-0.7-0.7-0.9
				c-0.5-0.4-1-0.7-1-1.7V5.8c0-0.4-0.3-0.8-0.8-0.8h-2.3c-0.4,0-0.8,0.3-0.8,0.8v7.6h-0.1c-1.2-1.5-2.8-2.1-4.8-2.1
				c-4.3,0-7,3.2-7,7.9C99.8,23.6,102.4,27.1,106.8,27.1z M119.8,32.2h2.3c0.4,0,0.8-0.3,0.8-0.8v-6.3h0.1c1.2,1.6,2.7,2.1,4.7,2.1
				c4.3,0,7-3.2,7-7.9c0-4.6-2.7-7.9-7-7.9c-2,0-3.9,0.7-5,2.6h-0.1c-0.3-1.5-1.1-2.3-2.7-2.3h-1.7c-0.5,0-0.8,0.3-0.8,0.8v1.2
				c0,0.5,0.3,0.7,0.7,0.9c0.5,0.4,1,0.7,1,1.7v15.2C119,31.8,119.4,32.2,119.8,32.2z M126.8,23.8c-2.6,0-4-2-4-4.6
				c0-2.7,1.6-4.6,4-4.6c2.5,0,3.9,2,3.9,4.6C130.7,21.9,129.3,23.8,126.8,23.8z M137.6,26.8h4c0.5,0,0.8-0.3,0.8-0.8V25
				c0-0.6-0.3-0.7-0.7-1c-0.5-0.4-1-0.7-1-1.7V18c0-2.1,1-3.5,3.1-3.5c2.1,0,3.1,1.3,3.1,3.5v8.1c0,0.4,0.3,0.8,0.8,0.8h4
				c0.5,0,0.8-0.3,0.8-0.8V25c0-0.6-0.3-0.7-0.7-1c-0.5-0.4-1-0.7-1-1.7v-4.5c0-3.9-1.9-6.5-5.8-6.5c-1.6,0-3.1,0.4-4.2,1.8h-0.1
				V5.8c0-0.4-0.3-0.8-0.8-0.8h-2.3c-0.4,0-0.8,0.3-0.8,0.8v20.3C136.9,26.5,137.2,26.8,137.6,26.8z M161.2,27.1
				c4.9,0,8.2-3.5,8.2-7.9c0-4.6-3.5-8-8.2-8c-4.4,0-8.2,3-8.2,8C153.1,24,156.5,27.1,161.2,27.1z M161.2,23.8c-2.7,0-4.3-2-4.3-4.5
				c0-3.2,2.2-4.6,4.3-4.6c2.6,0,4.3,2.1,4.3,4.6S163.8,23.8,161.2,23.8z M172.5,26.8h4c0.5,0,0.8-0.3,0.8-0.8V25
				c0-0.6-0.3-0.7-0.7-1c-0.5-0.4-1-0.7-1-1.7V18c0-2.2,1-3.5,3.1-3.5c2.1,0,3.1,1.3,3.1,3.5v8.1c0,0.4,0.3,0.8,0.8,0.8h4
				c0.5,0,0.8-0.3,0.8-0.8V25c0-0.6-0.3-0.7-0.7-1c-0.5-0.4-1-0.7-1-1.7v-4.5c0-4.1-2.1-6.5-5.9-6.5c-2.1,0-3.8,0.8-4.6,2.3H175
				c-0.3-1.2-1.1-2-2.7-2h-1.5c-0.5,0-0.8,0.3-0.8,0.8v1.2c0,0.5,0.3,0.7,0.7,0.9c0.5,0.4,1,0.7,1,1.7v9.9
				C171.8,26.5,172.1,26.8,172.5,26.8z M196.1,27.1c2.4,0,4.6-0.7,6.1-2.4c0.2-0.3,0.3-0.5,0-0.7l-1.7-1.4c-0.3-0.2-0.5-0.2-0.9,0.2
				c-0.9,0.8-2.3,1.2-3.5,1.2c-2.4,0-3.9-1.3-4.2-3.5h10.5c0.4,0,0.7-0.2,0.7-0.7c0.3-4.7-2.3-8.5-7.4-8.5c-4.7,0-7.7,3.4-7.7,8
				C188,23.9,191.1,27.1,196.1,27.1z M192,17.6c0.3-1.8,1.5-3.2,3.7-3.2c2.2,0,3.4,1.4,3.6,3.2H192z M211,27.1
				c3.4,0,6.1-1.4,6.1-4.9c0-2.7-2-3.5-4.3-4.3l-1.9-0.6c-1.3-0.4-2.4-0.7-2.4-1.7c0-1,1.1-1.4,2.3-1.4c1.3,0,2.3,0.5,3,1.2
				c0.3,0.3,0.7,0.4,1,0.1l1.4-1.2c0.4-0.3,0.5-0.8,0.1-1.2c-1.4-1.4-3.3-2-5.6-2c-3.3,0-6,1.4-6,4.5c0,2.7,1.7,3.7,4.4,4.6L211,21
				c1.4,0.5,2.4,0.8,2.4,1.7c0,1.1-1.1,1.3-2.4,1.3c-1.6,0-2.8-0.7-3.7-1.6c-0.3-0.3-0.7-0.4-1-0.2l-1.7,1.3c-0.4,0.3-0.3,0.7,0,1.1
				C206.1,26.4,208.4,27.1,211,27.1z M221.2,27.1c1.4,0,2.5-1.1,2.5-2.5c0-1.4-1.1-2.5-2.5-2.5c-1.4,0-2.5,1.1-2.5,2.5
				C218.7,26,219.8,27.1,221.2,27.1z M232.6,27.1c2.6,0,4.6-0.9,6.1-2.4c0.2-0.3,0.2-0.6-0.1-0.8l-1.9-1.6c-0.3-0.3-0.7-0.2-0.9,0.1
				c-0.8,0.9-1.9,1.4-3.2,1.4c-2.7,0-4.3-2-4.3-4.5c0-3.2,2.2-4.6,4.3-4.6c1.3,0,2.5,0.5,3.2,1.5c0.2,0.3,0.6,0.3,0.9,0.1l1.9-1.6
				c0.3-0.2,0.3-0.6,0.1-0.8c-1.5-1.5-3.6-2.5-6.1-2.5c-4.4,0-8.2,3-8.2,8C224.5,24,227.9,27.1,232.6,27.1z M247.8,27.1
				c4.9,0,8.2-3.5,8.2-7.9c0-4.6-3.5-8-8.2-8c-4.4,0-8.2,3-8.2,8C239.6,24,243,27.1,247.8,27.1z M247.8,23.8c-2.7,0-4.3-2-4.3-4.5
				c0-3.2,2.2-4.6,4.3-4.6c2.6,0,4.3,2.1,4.3,4.6S250.3,23.8,247.8,23.8z"/>
		</g>
	</g>
</g>
</svg>
