<svg width="285" height="32" viewBox="0 0 285 32" fill="none" xmlns="http://www.w3.org/2000/svg">
<g clip-path="url(#clip0_541_1412)">
<g clip-path="url(#clip1_541_1412)">
<rect width="315.028" height="64.5807" transform="translate(-16.2764 -16.2764)" fill="white"/>
<path fill-rule="evenodd" clip-rule="evenodd" d="M10.594 2.57926V0.752194C10.594 0.264274 10.2017 -0.131264 9.71777 -0.131264H0.721971C0.238041 -0.131264 -0.154256 0.264296 -0.154236 0.752231L-0.153908 8.56614C-0.153908 9.65217 0.581747 10.5976 1.62755 10.8556L29.5368 17.741C30.8174 18.0569 32.054 17.0982 32.0899 15.7789C32.0886 14.6395 32.0899 13.5 32.0899 12.3606C32.0899 11.2746 31.3543 10.3525 30.3085 10.0945L24.6818 8.72039C24.3673 8.64358 24.1458 8.35958 24.1458 8.03316V7.84563C24.1458 7.52099 24.3649 7.23806 24.6772 7.15954L31.4258 5.46259C31.8161 5.36444 32.09 5.01095 32.09 4.60537L32.09 0.752179C32.09 0.264265 31.6977 -0.131264 31.2138 -0.131264H22.2181C21.7341 -0.131264 21.3418 0.264279 21.3418 0.752202L21.3419 8.68399C21.3419 9.77002 22.0484 10.6884 23.0942 10.9464L28.7521 12.3464C29.0657 12.4239 29.2861 12.7075 29.2861 13.0331V14.1694C29.2861 14.6282 28.8597 14.9655 28.418 14.856L3.18346 8.60389C2.87005 8.52624 2.6497 8.24276 2.6497 7.91721V7.85509C2.6497 7.53077 2.86843 7.24802 3.18031 7.1692L9.93087 5.46318C10.3207 5.36466 10.5941 5.0114 10.594 4.6062L10.594 2.57926Z" fill="#F25C08"/>
<path d="M10.5943 26.7439L10.5942 31.2756C10.5942 31.7636 10.2019 32.1591 9.71797 32.1591H0.722095C0.238188 32.1591 -0.154099 31.7636 -0.154112 31.2757L-0.15421 27.4278C-0.15422 27.0224 0.119376 26.6691 0.509402 26.5707L7.2591 24.8686C7.57115 24.7899 7.79006 24.5071 7.79006 24.1826V23.8908C7.79006 23.565 7.56936 23.2814 7.25562 23.204L1.62755 21.8155C0.581748 21.5575 -0.153907 20.6354 -0.153907 19.5494L-0.15277 15.8961C-0.110168 14.5825 1.1225 13.6183 2.39943 13.9333L30.3087 20.8187C31.3545 21.0767 32.0902 22.0221 32.0902 23.1081V31.2756C32.0902 31.7636 31.6979 32.1591 31.214 32.1591H22.2183C21.7344 32.1591 21.3421 31.7636 21.3421 31.2756V27.4333C21.3421 27.0281 21.6155 26.6748 22.0053 26.5763L28.7555 24.8703C29.0674 24.7915 29.2861 24.5088 29.2861 24.1844V23.773C29.2861 23.4471 29.0654 23.1635 28.7517 23.0861L3.51718 16.8607C3.07565 16.7517 2.6497 17.089 2.6497 17.5475V18.8752C2.6497 19.2016 2.87121 19.4856 3.18573 19.5624L8.81267 20.9365C9.85847 21.1945 10.5941 22.14 10.5941 23.226L10.5943 26.7439Z" fill="#F25C08"/>
<path d="M259.067 26.8205H263.056C263.554 26.8205 263.823 26.5516 263.823 26.0523V24.9769C263.823 24.4008 263.516 24.2472 263.171 24.0168C262.634 23.6327 262.135 23.287 262.135 22.2884V18.0253C262.135 15.8745 263.094 14.5302 265.012 14.5302C266.968 14.5302 267.965 15.836 267.965 17.9868V26.0523C267.965 26.4748 268.31 26.8205 268.732 26.8205H272.72C273.219 26.8205 273.487 26.5516 273.487 26.0523V24.9769C273.487 24.4008 273.181 24.2472 272.835 24.0168C272.299 23.6327 271.8 23.287 271.8 22.2884V18.0253C271.8 15.8745 272.759 14.5302 274.676 14.5302C276.632 14.5302 277.63 15.836 277.63 17.9868V26.0523C277.63 26.4748 277.975 26.8205 278.397 26.8205H282.385C282.884 26.8205 283.152 26.5516 283.152 26.0523V24.9769C283.152 24.4008 282.846 24.2472 282.5 24.0168C281.963 23.6327 281.465 23.287 281.465 22.2884V17.8332C281.465 13.7237 279.394 11.304 275.789 11.304C273.986 11.304 272.452 12.0337 270.918 13.9157C269.997 12.2258 268.348 11.304 266.124 11.304C264.206 11.304 262.557 12.149 261.675 13.6084H261.56C261.253 12.4562 260.486 11.6113 258.875 11.6113H257.379C256.881 11.6113 256.612 11.8801 256.612 12.3794V13.5316C256.612 14.0309 256.919 14.1845 257.264 14.415C257.801 14.7991 258.3 15.1447 258.3 16.1433V26.0523C258.3 26.4748 258.645 26.8205 259.067 26.8205ZM48.6261 26.8205H51.0807C51.5026 26.8205 51.8477 26.4748 51.8477 26.0523V18.2557C51.8477 17.4491 52.1546 17.3339 52.9216 17.4491L60.4771 18.6782C61.1291 18.7934 61.3592 19.1775 61.3592 19.8688V26.0523C61.3592 26.4748 61.7044 26.8205 62.1262 26.8205H64.5808C65.0027 26.8205 65.3479 26.4748 65.3479 26.0523V5.77338C65.3479 5.3509 65.0027 5.00523 64.5808 5.00523H62.1262C61.7044 5.00523 61.3592 5.3509 61.3592 5.77338V14.0309C61.3592 14.8375 61.0524 14.9527 60.2853 14.8375L52.7299 13.6084C52.0779 13.4932 51.8477 13.1091 51.8477 12.4178V5.77338C51.8477 5.3509 51.5026 5.00523 51.0807 5.00523H48.6261C48.2042 5.00523 47.8591 5.3509 47.8591 5.77338V26.0523C47.8591 26.4748 48.2042 26.8205 48.6261 26.8205ZM75.6647 27.1277C78.0809 27.1277 80.267 26.4748 81.8011 24.7465C82.0312 24.4777 82.0696 24.2472 81.8011 24.0168L80.1136 22.5957C79.8451 22.3653 79.6534 22.3653 79.3849 22.6341C78.3494 23.5943 76.9687 23.9784 75.7414 23.9784C73.3636 23.9784 71.8295 22.7109 71.5226 20.5217H81.9929C82.4148 20.5217 82.6832 20.2913 82.7216 19.8304C82.9901 15.1447 80.3821 11.304 75.2812 11.304C70.6022 11.304 67.6107 14.7222 67.6107 19.2543C67.6107 23.9015 70.7556 27.1277 75.6647 27.1277ZM71.5993 17.6412C71.9445 15.836 73.0951 14.4534 75.3195 14.4534C77.544 14.4534 78.6946 15.836 78.8863 17.6412H71.5993ZM89.7018 24.0936C88.4361 24.0936 87.4006 23.5175 87.4006 22.25C87.4006 21.021 88.4745 20.4449 89.7018 20.4449H93.6137C93.6137 22.9414 91.8495 24.0936 89.7018 24.0936ZM88.9731 27.1277C91.1208 27.1277 92.8083 26.4748 93.9206 24.6313H94.0356C94.3424 25.9755 95.1478 26.8205 96.7586 26.8205H98.2928C98.7913 26.8205 99.0598 26.5516 99.0598 26.0523V24.9001C99.0598 24.4008 98.753 24.2472 98.4078 24.0168C97.8709 23.6327 97.3723 23.287 97.3723 22.2884V17.91C97.3723 14.0693 95.4163 11.304 90.814 11.304C88.6279 11.304 86.6719 12.0721 85.1762 13.6852C84.8693 14.0309 84.831 14.3766 85.2529 14.6838L86.8637 15.9129C87.2088 16.1817 87.5157 16.1817 87.8992 15.7592C88.6279 15.0295 89.5867 14.5686 90.814 14.5686C92.77 14.5686 93.6137 15.4904 93.6137 16.7962C93.6137 17.2571 93.3453 17.5644 92.7316 17.5644H89.3182C86.1733 17.5644 83.7571 19.2927 83.7571 22.4421C83.7571 25.5146 85.9049 27.1277 88.9731 27.1277ZM107.651 23.8631C105.196 23.8631 103.7 21.8276 103.7 19.2159C103.7 16.681 105.12 14.5686 107.651 14.5686C110.182 14.5686 111.639 16.6042 111.639 19.2159C111.639 21.866 110.105 23.8631 107.651 23.8631ZM106.807 27.1277C109.147 27.1277 110.872 26.206 111.793 24.4777H111.908C112.253 25.9755 113.059 26.8205 114.669 26.8205H116.357C116.855 26.8205 117.124 26.5516 117.124 26.0523V24.9001C117.124 24.4008 116.817 24.2472 116.472 24.0168C115.935 23.6327 115.436 23.287 115.436 22.2884V5.77338C115.436 5.3509 115.091 5.00523 114.669 5.00523H112.368C111.946 5.00523 111.601 5.3509 111.601 5.77338V13.378H111.524C110.335 11.9185 108.763 11.304 106.769 11.304C102.512 11.304 99.7501 14.4918 99.7501 19.1775C99.7501 23.6327 102.358 27.1277 106.807 27.1277ZM119.809 32.1591H122.11C122.532 32.1591 122.877 31.8134 122.877 31.3909V25.0538H122.953C124.181 26.6285 125.677 27.1277 127.671 27.1277C131.966 27.1277 134.689 23.94 134.689 19.2159C134.689 14.607 131.966 11.304 127.671 11.304C125.715 11.304 123.721 12.0337 122.647 13.9157H122.532C122.186 12.4562 121.419 11.6113 119.809 11.6113H118.121C117.622 11.6113 117.354 11.8801 117.354 12.3794V13.5316C117.354 14.0309 117.661 14.1845 118.006 14.415C118.543 14.7991 119.042 15.1447 119.042 16.1433V31.3909C119.042 31.8134 119.387 32.1591 119.809 32.1591ZM126.789 23.8247C124.181 23.8247 122.8 21.8276 122.8 19.2159C122.8 16.489 124.411 14.607 126.827 14.607C129.32 14.607 130.739 16.6042 130.739 19.2159C130.739 21.866 129.282 23.8247 126.789 23.8247ZM137.643 26.8205H141.631C142.13 26.8205 142.398 26.5516 142.398 26.0523V24.9769C142.398 24.4008 142.091 24.2472 141.746 24.0168C141.209 23.6327 140.711 23.287 140.711 22.2884V17.9868C140.711 15.8745 141.708 14.5302 143.817 14.5302C145.927 14.5302 146.924 15.8745 146.924 17.9868V26.0523C146.924 26.4748 147.269 26.8205 147.691 26.8205H151.68C152.178 26.8205 152.447 26.5516 152.447 26.0523V24.9769C152.447 24.4008 152.14 24.2472 151.795 24.0168C151.258 23.6327 150.759 23.287 150.759 22.2884V17.7948C150.759 13.8773 148.88 11.304 144.968 11.304C143.357 11.304 141.861 11.7265 140.787 13.1475H140.711V5.77338C140.711 5.3509 140.366 5.00523 139.944 5.00523H137.643C137.221 5.00523 136.875 5.3509 136.875 5.77338V26.0523C136.875 26.4748 137.221 26.8205 137.643 26.8205ZM161.229 27.1277C166.177 27.1277 169.398 23.5943 169.398 19.2543C169.398 14.607 165.87 11.304 161.229 11.304C156.78 11.304 153.06 14.2998 153.06 19.2543C153.06 23.9784 156.512 27.1277 161.229 27.1277ZM161.229 23.7863C158.545 23.7863 156.896 21.8276 156.896 19.2543C156.896 16.0665 159.12 14.607 161.229 14.607C163.799 14.607 165.525 16.681 165.525 19.2543C165.525 21.8276 163.799 23.7863 161.229 23.7863ZM172.543 26.8205H176.532C177.031 26.8205 177.299 26.5516 177.299 26.0523V24.9769C177.299 24.4008 176.992 24.2472 176.647 24.0168C176.11 23.6327 175.612 23.287 175.612 22.2884V18.0253C175.612 15.8745 176.57 14.5302 178.68 14.5302C180.828 14.5302 181.825 15.836 181.825 17.9868V26.0523C181.825 26.4748 182.17 26.8205 182.592 26.8205H186.58C187.079 26.8205 187.348 26.5516 187.348 26.0523V24.9769C187.348 24.4008 187.041 24.2472 186.696 24.0168C186.159 23.6327 185.66 23.287 185.66 22.2884V17.8332C185.66 13.7237 183.589 11.304 179.792 11.304C177.683 11.304 176.033 12.149 175.151 13.6084H175.036C174.729 12.4562 173.962 11.6113 172.352 11.6113H170.856C170.357 11.6113 170.089 11.8801 170.089 12.3794V13.5316C170.089 14.0309 170.396 14.1845 170.741 14.415C171.278 14.7991 171.776 15.1447 171.776 16.1433V26.0523C171.776 26.4748 172.122 26.8205 172.543 26.8205ZM196.054 27.1277C198.47 27.1277 200.656 26.4748 202.19 24.7465C202.42 24.4777 202.458 24.2472 202.19 24.0168L200.502 22.5957C200.234 22.3653 200.042 22.3653 199.62 22.7877C198.738 23.5943 197.358 23.9784 196.13 23.9784C193.752 23.9784 192.218 22.7109 191.911 20.5217H202.382C202.804 20.5217 203.072 20.2913 203.11 19.8304C203.379 15.1447 200.771 11.304 195.67 11.304C190.991 11.304 188 14.7222 188 19.2543C188 23.9015 191.144 27.1277 196.054 27.1277ZM191.988 17.6412C192.333 15.836 193.484 14.4534 195.708 14.4534C197.933 14.4534 199.083 15.836 199.275 17.6412H191.988ZM210.973 27.1277C214.348 27.1277 217.109 25.7067 217.109 22.25C217.109 19.5231 215.153 18.7166 212.814 17.9868L210.934 17.4107C209.63 17.0267 208.518 16.681 208.518 15.7592C208.518 14.7222 209.592 14.3766 210.819 14.3766C212.123 14.3766 213.12 14.9143 213.811 15.5288C214.118 15.836 214.501 15.9129 214.846 15.644L216.265 14.4918C216.649 14.1845 216.726 13.6468 216.38 13.3012C214.961 11.8801 213.12 11.304 210.819 11.304C207.521 11.304 204.836 12.7251 204.836 15.836C204.836 18.5245 206.562 19.5615 209.208 20.4065L211.011 20.9826C212.392 21.4435 213.389 21.7892 213.389 22.6725C213.389 23.7479 212.315 24.0168 210.973 24.0168C209.362 24.0168 208.135 23.3638 207.291 22.4421C206.984 22.0964 206.601 22.058 206.255 22.2884L204.529 23.5559C204.108 23.8631 204.184 24.2856 204.529 24.6313C206.14 26.4364 208.441 27.1277 210.973 27.1277ZM221.213 27.1277C222.594 27.1277 223.706 26.0139 223.706 24.5929C223.706 23.2102 222.594 22.0964 221.213 22.0964C219.794 22.0964 218.682 23.2102 218.682 24.5929C218.682 26.0139 219.794 27.1277 221.213 27.1277ZM232.642 27.1277C235.212 27.1277 237.283 26.206 238.702 24.7081C238.932 24.4392 238.893 24.0936 238.625 23.8631L236.746 22.25C236.439 21.9812 236.094 22.058 235.864 22.3653C235.097 23.2486 233.984 23.7863 232.642 23.7863C229.957 23.7863 228.308 21.8276 228.308 19.2543C228.308 16.0665 230.533 14.607 232.642 14.607C233.984 14.607 235.097 15.1447 235.825 16.0665C236.055 16.3737 236.439 16.4122 236.707 16.1817L238.625 14.607C238.893 14.3766 238.932 14.0309 238.702 13.7621C237.206 12.2258 235.097 11.304 232.642 11.304C228.193 11.304 224.473 14.2998 224.473 19.2543C224.473 23.9784 227.925 27.1277 232.642 27.1277ZM247.753 27.1277C252.7 27.1277 255.922 23.5943 255.922 19.2543C255.922 14.607 252.394 11.304 247.753 11.304C243.304 11.304 239.584 14.2998 239.584 19.2543C239.584 23.9784 243.035 27.1277 247.753 27.1277ZM247.753 23.7863C245.068 23.7863 243.419 21.8276 243.419 19.2543C243.419 16.0665 245.643 14.607 247.753 14.607C250.322 14.607 252.048 16.681 252.048 19.2543C252.048 21.8276 250.322 23.7863 247.753 23.7863Z" fill="#27312F"/>
</g>
</g>
<defs>
<clipPath id="clip0_541_1412">
<rect width="285" height="32" fill="white"/>
</clipPath>
<clipPath id="clip1_541_1412">
<rect width="315.028" height="64.5807" fill="white" transform="translate(-16.2764 -16.2764)"/>
</clipPath>
</defs>
</svg>